<?xml version="1.0" encoding="UTF-8"?>
<!DOCTYPE svg PUBLIC "-//W3C//DTD SVG 1.1//EN" "http://www.w3.org/Graphics/SVG/1.1/DTD/svg11.dtd">
<!-- Creator: CorelDRAW -->
<svg xmlns="http://www.w3.org/2000/svg" xml:space="preserve" width="1600px" height="600px" style="shape-rendering:geometricPrecision; text-rendering:geometricPrecision; image-rendering:optimizeQuality; fill-rule:evenodd; clip-rule:evenodd"
viewBox="0 0 1600 600">
 <defs>
  <style type="text/css">
   <![CDATA[
    .fil0 {fill:#4C4840}
    .fil1 {fill:#716F61}
    .fil4 {fill:#98AF85}
    .fil2 {fill:#99AE6A}
    .fil3 {fill:#512F2B}
   ]]>
  </style>
 </defs>
 <g id="far">
  <metadata id="CorelCorpID_0Corel-Layer"/>
  <polygon class="fil0" points="484.256,433.816 666.185,379.688 759.404,388.709 804.511,421.787 851.12,433.816 911.262,411.262 959.376,396.227 996.964,390.213 1037.56,399.234 1076.65,424.794 1130.78,448.851 1231.52,433.816 1288.65,406.752 1335.26,427.801 1390.89,465.39 1439.01,463.886 1479.6,435.319 1518.69,421.787 1567.56,370.191 1581.95,360.67 1599.89,360.83 1599.64,599.426 472.227,578.156 0.348425,600.456 0.317717,359.94 33.7169,366.634 105.515,365.387 151.723,346.597 269.277,370.873 309.597,358.055 352.448,375.682 "/>
  <path class="fil1" d="M400.057 459.376l87.2056 -88.7091 88.7091 -12.0284 21.0496 12.0284c0,0 24.0567,7.51772 30.0709,15.0354 6.01418,7.51772 33.078,42.0992 33.078,42.0992 0,0 12.0284,16.539 24.0567,25.5602 12.0284,9.02126 31.5744,31.5744 31.5744,31.5744l39.0921 15.0354 86.3729 54.9461 53.4567 -57.9532 27.0638 -13.5319 31.5744 -31.5744 36.0851 -22.5532 55.6311 -24.0567 60.1418 -13.5319 49.617 -9.02126 24.0567 10.5248 42.0992 27.0638 30.0709 36.0851 30.0709 33.078c0,0 42.0992,6.01418 49.617,6.01418 7.51772,0 60.1418,0 60.1418,0l72.1701 -24.0567 45.1063 -13.5319 76.6642 -28.3618 16.4398 -0.0259843 -1.02402 170.44 -1203.2 17.3232 -396.873 -17.413 -0.811418 -169.983 73.5284 44.3197 71.739 -16.9902 63.7477 -37.8839 107.974 3.61772 83.7024 36.4606z"/>
 </g>
 <g id="close" visibility="hidden">
  <metadata id="CorelCorpID_1Corel-Layer"/>
  <path class="fil2" d="M566.951 56.426l-10.5248 102.241 -12.0284 63.1488 12.0284 49.617 -4.51063 60.1418c0,0 -21.0496,31.5744 -15.0354,52.624 6.01418,21.0496 4.51063,52.624 4.51063,52.624l-12.0284 64.6524 -13.1681 122.89 -3.00709 13.5319 13.5319 -1.50354 5.6504 -65.7555 9.02126 -79.6878c0,0 9.02126,-36.0851 9.02126,-45.1063 0,-9.02126 0,-54.1276 0,-54.1276l9.02126 -42.0992 7.51772 -30.0709 9.02126 -39.0921 -12.0284 -37.5886 0 -55.6311c0,0 9.02126,-48.1134 9.02126,-60.1418 0,-12.0284 0,-58.6382 0,-58.6382l12.0284 -39.0921 9.02126 -30.0709 -19.5461 1.50354 -7.51772 55.6311z"/>
  <path class="fil3" d="M377.09 13.3512l-30.0709 93.2197 -10.5248 70.6666 -18.0425 129.305c0,0 0,63.1488 0,76.6807 0,13.5319 3.00709,81.1914 3.00709,81.1914l9.02126 111.262 2.64331 54.6366 42.0992 -3.00709 -14.6717 -62.1544 -13.5319 -57.1347c0,0 -1.50354,-79.6878 -1.50354,-90.2126 0,-10.5248 3.00709,-34.5815 3.00709,-42.0992 0,-7.51772 10.5248,-109.759 10.5248,-109.759l37.5886 -73.6737 57.1347 -40.5957c0,0 34.5815,-13.5319 46.6099,-21.0496 12.0284,-7.51772 45.1063,-45.1063 45.1063,-45.1063l6.01418 -45.1063 7.51772 -42.0992 -10.5248 0 -7.51772 37.5886 -13.5319 34.5815 -10.5248 27.0638 -37.5886 22.5532 -48.1134 19.5461 -43.6028 19.5461 -3.00709 -30.0709 18.0425 -40.5957 3.00709 -40.5957 10.5248 -51.1205 -39.0921 1.50354 0 15.0354z"/>
  <path class="fil2" d="M884.633 537.826l-6.02953 -102.605 1.7315 -64.2603 -19.839 -47.0421 -5.2063 -60.0851c0,0 15.7063,-34.5449 6.39095,-54.3555 -9.31654,-19.8106 -12.9035,-51.2173 -12.9035,-51.2173l1.49055 -65.7449 -3.61536 -87.763 0.794882 -13.8402 -13.115 3.65788 1.86142 30.163 3.89173 80.1024c0,0 -3.10984,37.0654 -1.66063,45.9697 1.44921,8.90434 8.69174,53.4248 8.69174,53.4248l-2.1437 43.0016 -2.59134 30.8882 -2.62677 40.0335 17.9079 35.1685 8.93386 54.9095c0,0 -1.17874,48.9378 0.753544,60.8103 1.9311,11.8724 9.41575,57.8776 9.41575,57.8776l-5.59488 40.5154 -8.03977 73.4221 19.0512 -4.62284 2.45079 -98.4083z"/>
  <path class="fil3" d="M1230.58 608.227l-16.539 -76.6807 7.51772 -49.617c0,0 -1.50354,-19.5461 3.00709,-42.0992 4.51063,-22.5532 7.51772,-42.0992 7.51772,-42.0992l15.0354 -57.1347 31.5744 -33.078 46.6099 -27.0638 10.5248 -31.5744c0,0 1.50354,-31.5744 4.51063,-40.5957 3.00709,-9.02126 15.0354,-33.078 15.0354,-43.6028 0,-10.5248 -4.51063,-40.5957 -7.51772,-61.6453 -3.00709,-21.0496 25.5602,-64.6524 25.5602,-64.6524 0,0 40.5957,-37.5886 49.617,-51.1205 9.02126,-13.5319 22.5532,-45.1063 22.5532,-45.1063l-18.0425 -3.00709 -9.02126 34.5815 -30.0709 34.5815 -30.0709 30.0709 -13.5319 31.5744 -6.01418 43.6028 -6.01418 -13.5319c0,0 -7.51772,-42.0992 -9.02126,-51.1205 -1.50354,-9.02126 -6.01418,-31.5744 -6.01418,-42.0992 0,-10.5248 1.50354,-9.02126 1.50354,-25.5602 0,-16.539 -9.02126,-37.5886 -9.02126,-37.5886l-9.02126 22.5532 6.01418 37.5886 6.01418 27.0638 1.50354 22.5532 7.51772 42.0992 6.01418 21.0496 3.00709 21.0496 -3.00709 16.539 -15.0354 24.0567 1.97835 61.3288 -12.424 25.3228 -17.1721 1.58268 -15.4311 -24.5315 -10.8413 -30.9414 -0.237402 -26.7473c0,0 0,-27.0638 1.50354,-36.0851 1.50354,-9.02126 4.51063,-30.0709 -1.50354,-43.6028 -6.01418,-13.5319 -13.5319,-27.0638 -13.5319,-36.0851 0,-9.02126 4.51063,-25.5602 10.5248,-36.0851 6.01418,-10.5248 7.51772,-21.0496 7.51772,-28.5673 0,-7.51772 -10.5248,-36.0851 -10.5248,-36.0851l-13.5319 -3.00709 6.01418 27.0638 -1.50354 19.5461 -9.02126 28.5673 0 28.5673 6.01418 27.0638c0,0 -1.50354,21.0496 0,28.5673 1.50354,7.51772 3.00709,25.5602 3.00709,34.5815 0,9.02126 -3.00709,60.1418 -3.00709,60.1418l9.02126 42.0992 -4.51063 18.0425 -18.0425 -10.5248 -21.0496 -13.5319 -6.01418 -27.0638 -16.539 -10.5248 -31.5744 -36.0851 -10.5248 -25.5602 -1.50354 -40.5957 -16.539 -15.0354 -10.5248 -18.0425 -9.02126 -39.0921 -9.02126 -33.078 0 -39.0921 -16.539 -3.00709 12.0284 64.6524 10.5248 43.6028 18.0425 30.0709 6.01418 27.0638 6.01418 33.078 19.5461 28.5673 22.5532 34.5815 15.0354 18.0425 10.5248 25.5602 21.0496 15.0354 1.50354 42.0992 -19.5461 55.6311 -13.5319 55.6311 -4.51063 52.624 6.01418 64.6524 1.50354 37.5886 4.51063 31.5744 40.5957 0 -6.01418 -19.5461z"/>
  <path class="fil4" d="M203.512 0.266929l-6.79843 40.5957 -15.2976 66.1559c0,0 5.94922,88.7091 6.79961,96.2268 0.849213,7.51772 5.94803,70.6666 5.94803,78.1843 0,7.51772 -10.1976,79.6878 -10.1976,79.6878 0,0 1.69961,21.0496 1.69961,46.6099 0,25.5602 1.69961,70.6666 0,78.1843 -1.69961,7.51772 -7.64882,46.6099 -6.79843,60.1418 0.849213,13.5319 1.69961,54.1276 1.69961,54.1276l-3.39921 22.5532 -12.7476 -6.01418 5.09882 -27.0638 -4.24843 -48.1134c0,0 3.39921,-10.5248 3.39921,-28.5673 0,-18.0425 6.79843,-69.163 6.79843,-69.163 0,0 -0.850394,-34.5815 -3.39921,-51.1205 -2.55,-16.539 -5.94922,-37.5886 -5.09882,-49.617 0.849213,-12.0284 5.94803,-19.5461 7.64764,-39.0921 1.69961,-19.5461 3.39921,-46.6099 3.39921,-46.6099 0,0 -5.09882,-51.1205 -5.94803,-64.6524 -0.850394,-13.5319 -1.69961,-63.1488 -1.69961,-63.1488l8.49804 -63.1488c0,0 6.79843,-49.617 6.79843,-57.1347 0,-7.51772 -1.69961,-40.5957 -1.69961,-40.5957l11.8972 -10.5248 7.64882 42.0992z"/>
  <path class="fil2" d="M1509.73 531.808l5.23465 -102.648 8.75315 -63.6851 -14.5724 -48.9307 1.40197 -60.2941c0,0 19.3913,-32.6185 12.2988,-53.3292 -7.09134,-20.7118 -7.22008,-52.3217 -7.22008,-52.3217l8.67638 -65.1874 6.01063 -87.6319 2.30551 -13.6689 -13.4362 2.19921 -1.45158 30.1866 -4.89685 80.0469c0,0 -7.14804,36.502 -6.68268,45.5114 0.466536,9.00945 2.79331,54.0555 2.79331,54.0555l-6.83622 42.5091 -5.9563 30.4181 -6.99213 39.5055 13.9524 36.9189 2.87008 55.5567c0,0 -6.52559,48.515 -5.90551,60.5268 0.62126,12.0118 3.02599,58.5603 3.02599,58.5603l-9.99449 39.6603 -16.0264 72.1016 19.4421 -2.50984 13.2059 -97.5497z"/>
 </g>
</svg>
